<?xml version="1.0" standalone="no"?>
<!DOCTYPE svg PUBLIC "-//W3C//DTD SVG 20010904//EN"
 "http://www.w3.org/TR/2001/REC-SVG-20010904/DTD/svg10.dtd">
<svg version="1.0" xmlns="http://www.w3.org/2000/svg"
 width="300.000000pt" height="300.000000pt" viewBox="0 0 300.000000 300.000000"
 preserveAspectRatio="xMidYMid meet">
<metadata>
Created by potrace 1.10, written by Peter Selinger 2001-2011
</metadata>
<g transform="translate(0.000000,300.000000) scale(0.100000,-0.100000)"
fill="#0a45f5" stroke="none">
<path d="M1980 2545 c0 -1 17 -20 37 -41 82 -88 176 -253 221 -394 22 -66 55
-240 48 -247 -2 -3 -60 -4 -128 -4 l-123 0 -8 68 c-31 279 -246 522 -525 594
-165 42 -362 18 -511 -62 -240 -129 -376 -359 -374 -634 1 -224 68 -449 184
-615 67 -96 63 -93 137 -101 37 -4 69 -5 71 -4 2 2 -19 30 -47 62 -117 137
-205 323 -238 508 -24 136 -34 125 109 125 l123 0 11 -79 c43 -293 269 -537
554 -597 91 -20 268 -14 349 11 305 94 510 370 510 685 0 233 -89 505 -217
664 l-48 60 -67 1 c-38 1 -68 1 -68 0z m-490 -50 c58 -13 133 -43 113 -44 -7
-1 -13 -5 -13 -10 0 -5 8 -7 18 -4 10 2 33 -6 52 -19 19 -13 43 -27 54 -31 10
-4 16 -13 13 -21 -4 -9 0 -12 13 -9 12 3 33 -9 62 -36 24 -22 40 -41 37 -41
-12 0 -68 47 -62 53 3 4 -1 7 -10 7 -8 0 -17 -3 -20 -7 -2 -5 -2 -1 0 7 3 11
1 12 -8 3 -9 -9 -17 -5 -35 14 -14 15 -30 23 -38 20 -9 -4 -18 -2 -21 4 -13
20 -118 80 -132 75 -8 -3 -11 -1 -8 4 7 11 0 12 -86 15 -31 1 -62 5 -69 10 -9
5 -11 4 -6 -4 6 -8 -4 -10 -36 -5 -24 3 -48 7 -55 9 -7 2 -15 0 -19 -6 -3 -5
-14 -7 -25 -4 -11 4 -19 2 -19 -4 0 -15 -31 -13 -53 3 -16 12 -13 15 30 23 71
14 260 13 323 -2z m622 3 c24 -19 107 -146 114 -174 3 -13 10 -24 14 -24 5 0
6 -8 3 -19 -3 -11 2 -21 11 -24 11 -4 16 -19 16 -42 0 -25 4 -34 12 -29 7 5 9
2 5 -9 -3 -9 -1 -17 6 -20 6 -2 19 -44 30 -93 23 -109 29 -376 9 -396 -6 -6
-12 -24 -12 -38 0 -15 -13 -53 -30 -85 -16 -32 -30 -65 -30 -72 0 -7 -7 -13
-15 -13 -17 0 -21 55 -5 65 6 4 8 11 5 16 -4 5 5 20 20 33 16 15 23 29 19 41
-4 10 2 28 14 45 18 24 20 38 16 101 -6 86 -6 91 -1 144 2 22 -3 51 -10 65 -7
14 -13 38 -13 53 0 15 -7 44 -15 64 -8 20 -13 38 -10 41 3 3 5 0 5 -7 0 -7 5
-9 11 -6 14 9 6 30 -12 30 -7 0 -18 16 -24 35 -6 19 -16 45 -23 58 -8 13 -11
30 -8 37 3 9 0 12 -10 8 -10 -3 -12 0 -8 10 3 8 -6 27 -20 42 -14 15 -23 31
-20 36 3 5 1 9 -4 9 -5 0 -17 12 -27 26 -9 15 -12 23 -5 19 8 -5 11 -3 8 6 -3
8 -12 13 -22 11 -11 -2 -16 4 -16 23 0 14 -3 24 -7 24 -17 -3 -24 2 -18 11 8
14 28 13 47 -2z m-978 -50 c-3 -4 -13 -8 -23 -8 -10 0 -24 -7 -31 -15 -7 -8
-17 -15 -23 -15 -6 0 -22 -10 -35 -22 -14 -13 -22 -17 -17 -9 5 8 -9 4 -35
-10 -23 -13 -45 -30 -47 -36 -3 -7 -11 -13 -19 -13 -8 0 -14 -6 -14 -14 0 -8
-10 -16 -22 -18 -15 -2 -22 -9 -20 -19 1 -10 -6 -19 -19 -22 -11 -3 -18 -10
-15 -16 4 -5 0 -13 -7 -18 -15 -9 -67 -114 -67 -134 0 -7 -3 -9 -7 -6 -3 4
-15 -18 -25 -49 -18 -52 -23 -95 -20 -174 2 -74 -3 -166 -11 -177 -4 -6 -3
-13 2 -15 15 -5 20 -61 7 -78 -9 -13 -9 -13 6 -2 14 11 18 10 28 -8 7 -12 9
-32 6 -45 -4 -14 0 -27 9 -35 8 -7 15 -18 15 -24 0 -6 20 -50 45 -98 25 -48
45 -94 45 -101 0 -7 9 -19 20 -27 27 -19 62 -87 50 -95 -13 -8 -30 3 -30 20 0
9 -6 12 -15 9 -10 -4 -15 0 -15 14 0 11 -9 26 -20 33 -11 8 -22 25 -24 39 -2
14 -9 24 -16 22 -6 -1 -10 3 -7 10 6 18 -12 50 -24 42 -6 -4 -9 2 -8 12 2 11
-4 34 -13 51 -9 18 -19 46 -23 63 -4 16 -11 32 -16 35 -5 4 -9 19 -9 35 0 16
-4 31 -9 34 -14 9 -22 64 -27 190 -4 91 -2 121 8 127 10 7 10 9 1 9 -9 0 -11
11 -8 38 13 84 28 147 38 154 6 3 12 16 14 28 2 11 12 30 23 42 11 12 20 28
20 36 0 18 35 63 43 55 3 -3 9 5 12 19 3 13 19 32 35 43 17 11 30 25 30 30 0
13 92 85 107 85 6 0 23 7 39 15 22 11 31 12 43 2 14 -11 14 -10 2 5 -14 19
-14 18 29 31 18 5 51 -14 44 -25z m188 -89 l3 -91 -49 7 c-83 11 -226 77 -226
104 0 18 170 68 237 70 l32 1 3 -91z m215 53 c46 -15 83 -30 83 -34 0 -22
-149 -91 -222 -103 l-38 -6 0 92 0 91 48 -6 c26 -4 84 -19 129 -34z m-452
-137 c-47 -28 -115 -88 -140 -124 l-28 -41 -68 0 c-38 0 -69 3 -69 7 0 21 72
113 136 172 l74 69 56 -36 c47 -31 53 -39 39 -47z m643 28 c50 -43 151 -167
152 -185 0 -5 -30 -8 -67 -7 l-68 0 -38 50 c-33 43 -95 97 -130 113 -8 4 -6
10 7 18 10 7 31 23 45 35 14 12 30 23 35 23 5 0 34 -21 64 -47z m119 -52 c3
-11 11 -17 18 -15 17 7 27 -10 19 -30 -9 -23 -23 -20 -34 9 -5 14 -14 25 -20
25 -5 0 -10 7 -10 15 0 22 21 18 27 -4z m-652 -6 c22 -8 59 -14 83 -15 l42 0
0 -60 0 -60 -170 0 c-93 0 -170 4 -170 8 0 14 73 79 124 111 28 17 50 31 50
31 1 0 19 -7 41 -15z m358 -10 c23 -13 64 -47 92 -75 l49 -50 -167 0 -167 0 0
60 0 60 33 1 c17 0 50 6 72 14 22 7 41 13 43 14 2 1 22 -10 45 -24z m361 -89
c-3 -14 -1 -27 6 -31 9 -5 10 -1 6 16 -7 23 -7 23 8 5 18 -23 21 -52 6 -61
-15 -9 -39 12 -38 33 0 9 -3 27 -7 40 -6 17 -3 22 9 22 12 0 15 -6 10 -24z
m-1014 -76 c0 -4 -4 -10 -9 -15 -16 -18 -41 -118 -41 -167 l0 -48 -70 0 -70 0
0 33 c0 34 22 134 38 177 9 23 14 25 81 25 39 0 71 -2 71 -5z m838 -51 c14
-33 26 -83 29 -126 l6 -73 163 0 164 0 0 -27 c0 -40 -27 -149 -45 -184 l-16
-29 -382 2 -382 3 -23 59 c-16 39 -24 83 -25 128 l-2 68 -168 0 -167 0 6 43
c9 70 14 90 35 142 l19 50 383 -1 382 -2 23 -53z m182 -6 c11 -34 22 -84 26
-111 l6 -48 -68 2 -68 1 -4 53 c-2 29 -12 76 -23 104 -10 28 -19 53 -19 56 0
3 29 5 65 6 l65 0 20 -63z m56 -2 c0 -23 -4 -45 -10 -48 -5 -4 -7 1 -3 10 3 9
2 19 -3 22 -15 9 -12 67 3 63 7 -3 12 -22 13 -47z m24 -101 c0 -30 -4 -40 -16
-40 -11 0 -14 5 -10 16 3 9 6 27 6 40 0 13 5 24 10 24 6 0 10 -18 10 -40z
m290 -104 c0 -27 -30 -171 -41 -198 -11 -27 -14 -28 -84 -28 l-73 0 24 65 c14
39 24 88 24 120 l0 55 75 0 c58 0 75 -3 75 -14z m-1277 -41 c-8 -25 -16 -45
-16 -45 -1 0 -2 20 -2 45 0 36 4 45 17 45 16 0 16 -3 1 -45z m167 -9 c0 -45
25 -143 42 -163 8 -10 -5 -13 -60 -13 l-71 0 -16 53 c-9 28 -18 78 -22 109
l-6 57 59 3 c33 2 62 2 67 0 4 -2 7 -22 7 -46z m-154 -73 c-3 -4 -6 0 -6 8 0
11 -2 11 -10 -1 -8 -13 -10 -13 -10 1 0 24 13 32 23 14 5 -9 6 -19 3 -22z m18
-47 c4 -19 15 -45 26 -59 11 -14 20 -31 20 -39 0 -7 7 -23 15 -35 8 -12 12
-29 9 -38 -4 -9 -3 -15 2 -13 5 2 11 -2 14 -7 2 -5 17 -20 32 -33 15 -13 30
-32 33 -42 4 -11 13 -20 20 -20 19 0 29 -20 17 -32 -6 -6 -22 4 -46 29 -56 60
-108 131 -102 141 3 4 -4 16 -15 26 -13 11 -19 25 -16 37 3 10 1 17 -3 14 -5
-3 -11 -1 -15 5 -3 5 -1 10 6 10 8 0 6 6 -4 18 -18 19 -23 72 -8 72 5 0 12
-15 15 -34z m249 -152 c29 -31 70 -69 94 -84 l42 -27 -54 -35 -55 -36 -47 42
c-26 22 -59 54 -73 70 -28 32 -89 118 -90 126 0 3 30 4 66 3 l66 -1 51 -58z
m347 4 c0 -57 -1 -58 -28 -58 -16 0 -52 -7 -80 -15 -41 -12 -57 -13 -74 -4
-40 21 -160 123 -153 130 2 2 78 4 169 4 l166 0 0 -57z m370 51 c0 -11 -93
-94 -131 -117 -36 -22 -39 -22 -95 -7 -32 8 -70 15 -84 15 -24 0 -25 2 -23 57
1 32 2 58 2 58 1 0 75 0 166 0 91 0 165 -3 165 -6z m210 1 c0 -3 -16 -29 -35
-58 -40 -59 -130 -150 -168 -171 -23 -12 -28 -11 -49 9 -12 12 -36 28 -51 36
l-28 15 38 26 c50 33 100 81 123 118 18 29 21 30 94 30 42 0 76 -2 76 -5z m20
-99 c0 -4 -20 -29 -45 -54 -25 -26 -45 -52 -45 -57 0 -6 -3 -10 -7 -10 -5 0
-24 -14 -43 -30 -19 -16 -41 -30 -48 -30 -7 0 -15 -7 -18 -15 -4 -8 -10 -12
-15 -9 -5 3 -9 0 -9 -6 0 -7 -7 -10 -15 -6 -8 3 -14 0 -12 -6 1 -6 -11 -15
-28 -20 -16 -5 -43 -16 -60 -23 -36 -16 -130 -28 -156 -20 -37 12 -19 22 47
28 37 3 69 9 73 14 3 6 19 13 35 17 16 4 39 17 51 28 12 12 29 22 37 24 30 4
90 37 101 56 7 10 17 18 24 18 7 0 13 6 13 13 0 8 11 19 24 25 14 6 23 18 23
29 -1 11 4 18 15 17 10 -1 17 1 16 5 0 3 0 14 1 24 1 15 5 16 21 7 11 -6 20
-14 20 -19z m-600 -146 l0 -94 -52 6 c-29 3 -90 19 -136 36 -80 28 -82 30 -66
48 31 34 181 95 242 98 9 1 12 -24 12 -94z m126 77 c65 -17 184 -82 184 -100
0 -13 -157 -61 -220 -68 l-55 -6 2 94 c1 51 3 94 3 96 0 5 19 1 86 -16z m-489
-77 c-7 -17 9 -30 18 -15 11 18 30 11 71 -24 22 -19 59 -40 82 -47 23 -7 42
-18 42 -26 0 -8 5 -11 11 -8 8 6 140 9 197 6 20 -2 13 -21 -8 -21 -11 0 -20
-7 -20 -15 0 -17 -2 -18 -24 -9 -9 3 -14 10 -11 14 3 4 -24 7 -60 5 -44 -2
-63 1 -58 8 4 6 0 8 -10 4 -15 -5 -62 7 -136 35 -21 8 -22 11 -10 19 10 8 8 9
-8 4 -14 -4 -23 -2 -23 4 0 6 -6 11 -13 11 -7 0 -23 9 -35 20 -12 11 -26 20
-32 20 -11 0 -13 13 -3 23 13 13 35 7 30 -8z"/>
<path d="M1347 2039 c-24 -14 -21 -40 8 -68 14 -13 25 -27 25 -33 0 -5 4 -7 9
-3 6 3 8 -7 7 -22 -2 -16 -4 -43 -5 -61 -1 -29 -4 -33 -23 -30 -19 2 -24 11
-29 48 -5 31 -2 52 7 68 15 23 16 22 -27 26 -6 1 -21 -26 -34 -59 -37 -100
-38 -105 -21 -105 10 0 20 16 27 45 6 25 15 48 20 51 16 9 9 -119 -10 -198
-17 -74 -17 -78 0 -78 14 0 21 16 35 80 9 46 22 80 29 80 7 0 20 -35 30 -80
14 -62 22 -80 35 -80 16 0 16 4 3 58 -16 62 -27 173 -21 212 3 19 9 10 27 -42
12 -38 27 -68 32 -68 5 0 9 -36 9 -80 0 -47 4 -80 10 -80 6 0 10 18 10 40 0
52 18 52 22 0 6 -73 21 -41 19 39 -2 59 1 80 12 84 7 3 21 32 32 66 10 33 27
70 37 81 18 19 20 20 47 4 21 -13 33 -32 46 -75 11 -34 24 -59 32 -59 17 0 17
1 -15 90 -24 66 -30 75 -50 72 -12 -2 -22 2 -22 7 0 6 5 11 11 11 6 0 9 10 7
23 -2 16 -11 23 -30 25 -24 3 -28 0 -28 -22 0 -14 5 -26 10 -26 6 0 10 -5 10
-11 0 -6 -8 -8 -19 -4 -17 5 -23 -6 -48 -75 -16 -47 -34 -80 -42 -80 -11 0
-11 3 -1 15 15 18 6 45 -15 45 -22 0 -30 -27 -14 -46 12 -14 11 -16 -6 -13
-13 3 -26 26 -44 82 -24 70 -28 77 -48 72 -23 -5 -32 8 -13 20 33 20 -9 73
-43 54z"/>
<path d="M1620 1893 c0 -16 -9 -80 -20 -143 -11 -63 -20 -118 -20 -122 0 -5
32 -8 71 -8 l71 0 -5 28 c-4 15 -11 77 -18 137 -14 139 -19 151 -33 95 -7 -30
-8 -65 -3 -105 5 -33 9 -66 10 -72 0 -7 4 -13 8 -13 4 0 5 -9 2 -21 -4 -13
-11 -18 -21 -14 -8 3 -21 0 -30 -7 -13 -11 -14 -6 -8 42 3 30 9 79 11 109 3
30 9 60 14 65 10 14 -1 50 -16 54 -8 1 -13 -9 -13 -25z"/>
<path d="M625 950 l7 -30 -197 0 c-153 0 -196 -3 -192 -12 3 -10 51 -13 196
-13 l192 0 -6 -32 -6 -33 881 0 881 0 -3 32 -3 33 193 -3 c167 -2 192 -1 192
13 0 13 -27 15 -196 15 l-196 0 7 30 7 30 -882 0 -882 0 7 -30z m100 0 c4 6
10 8 15 5 5 -3 366 -5 802 -6 785 0 794 0 806 -20 12 -19 7 -67 -5 -55 -3 3
-11 0 -17 -7 -10 -9 -203 -11 -827 -10 -808 3 -852 3 -844 11 2 3 0 13 -6 23
-14 27 26 72 52 59 12 -7 20 -7 24 0z"/>
<path d="M849 730 c-49 -14 -71 -32 -90 -73 -34 -76 -20 -183 31 -232 55 -53
160 -39 199 27 52 85 28 228 -44 265 -32 16 -68 21 -96 13z m78 -72 c20 -16
35 -85 27 -126 -19 -105 -130 -111 -150 -7 -16 87 28 164 85 150 14 -4 32 -11
38 -17z"/>
<path d="M1745 725 c-48 -17 -71 -45 -86 -108 -31 -130 40 -237 148 -224 78 8
123 75 123 178 -1 116 -87 188 -185 154z m90 -67 c29 -26 41 -78 31 -133 -20
-106 -132 -97 -152 12 -13 68 28 143 78 143 9 0 29 -10 43 -22z"/>
<path d="M640 563 l0 -168 30 -1 30 -1 0 168 0 169 -30 0 -30 0 0 -167z"/>
<path d="M1062 563 l3 -167 25 0 25 0 -3 128 c-2 89 0 126 7 121 6 -3 11 -14
11 -25 0 -20 37 -211 42 -215 2 -1 15 -5 29 -8 26 -7 26 -5 44 81 42 210 44
212 42 57 l-2 -139 25 0 25 0 3 167 2 167 -44 0 c-26 0 -46 -5 -48 -12 -3 -7
-14 -57 -24 -110 -10 -54 -21 -98 -24 -98 -3 0 -14 44 -24 98 -10 53 -21 103
-24 110 -2 7 -22 12 -48 12 l-44 0 2 -167z"/>
<path d="M1972 563 l3 -167 28 0 28 0 2 167 2 167 -33 0 -32 0 2 -167z"/>
<path d="M2090 570 c0 -88 1 -163 3 -167 1 -5 13 -8 26 -8 l23 1 -1 129 c-1
90 2 125 9 115 5 -8 10 -26 10 -40 1 -14 9 -65 18 -114 18 -89 19 -90 47 -90
l29 0 26 130 25 129 5 -130 c5 -128 5 -130 28 -130 23 1 23 1 25 168 l2 167
-46 0 -45 0 -18 -97 c-23 -126 -26 -134 -36 -108 -4 11 -15 62 -25 113 l-17
92 -44 0 -44 0 0 -160z"/>
<path d="M1440 576 l0 -34 52 1 c51 2 52 3 52 32 0 29 -2 30 -52 33 l-52 3 0
-35z"/>
</g>
</svg>
